<?xml version="1.0" encoding="UTF-8"?>
<svg id="Layer_1" data-name="Layer 1" xmlns="http://www.w3.org/2000/svg" viewBox="0 0 2816.7 989.28">
  <g>
    <path d="M2796.81,378.09h-122.15c-7.88,0-15.01,4.66-18.18,11.87l-100.66,228.98-105.31-229.28c-3.24-7.05-10.29-11.57-18.05-11.57h-123.05c-14.48,0-24.09,14.99-18.05,28.15l181.73,395.66c-16.34,22.22-42.5,35.84-70.82,35.84h-104.54c-10.97,0-19.86,8.89-19.86,19.86v111.82c0,10.97,8.89,19.86,19.86,19.86h104.54c94.95,0,180.98-56.16,219.19-143.08l193.54-440.26c5.77-13.13-3.84-27.86-18.18-27.86Z"/>
    <path d="M2264.59,757.95l-71.61-87.38c-6.07-7.41-16.41-9.12-24.96-4.8-10.51,5.31-22.22,8.15-34.11,8.13-13.65-.02-24.71-11.15-24.71-24.8v-195.86c113.34-44.29,192.52-155.35,192.52-281.21,0-93.88-75.58-170.43-169.09-172.01-96.22-1.62-174.98,79.68-174.98,175.92v469.85c0,99.19,81.17,181.38,180.34,179.61,43.77-.78,86.51-14.32,122.69-38.64,9.57-6.43,11.21-19.9,3.9-28.81ZM2103.61,160.78c0-14.38,11.7-26.08,26.08-26.08s26.08,11.7,26.08,26.08c0,50.05-19.73,96.41-52.17,130.92v-130.92Z"/>
    <path d="M1842.11,173.11h-111.82c-10.97,0-19.86,8.89-19.86,19.86v197.95c-28.77-30.53-68.87-48.91-122.21-48.91h-77.35c-108.12,0-196.08,87.96-196.08,196.07v68.77c0,108.12,87.96,196.07,196.08,196.07h77.35c53.24,0,93.45-18.15,122.21-48.58l9.81,28.43c2.76,8.01,10.3,13.38,18.78,13.38h103.09c10.97,0,19.86-8.89,19.86-19.86V192.97c0-10.97-8.89-19.86-19.86-19.86ZM1702.21,585.64c-5.2,37.71-37.63,65.74-75.69,65.74h-99.91c-33.28,0-60.26-26.98-60.26-60.26v-37.29c0-33.29,26.98-60.27,60.27-60.27h112.13c47.83,0,70.27,42.78,63.47,92.09Z"/>
    <path d="M1118.43,378.08h111.82c10.96,0,19.86,8.9,19.86,19.86v378.34c0,10.96-8.9,19.86-19.86,19.86h-111.82c-10.96,0-19.86-8.9-19.86-19.86v-378.34c0-10.96,8.9-19.86,19.86-19.86Z"/>
    <rect x="1094.17" y="173.11" width="160.33" height="122.37" rx="41.7" ry="41.7"/>
    <path d="M1018.91,379.02h-169.3c-76.28,0-138.11,61.83-138.11,138.11v259.17c0,10.97,8.89,19.86,19.86,19.86h111.82c10.97,0,19.86-8.89,19.86-19.86v-221.37c0-13.46,10.91-24.37,24.37-24.37h131.5c10.97,0,19.86-8.89,19.86-19.86v-111.82c0-10.97-8.89-19.86-19.86-19.86Z"/>
  </g>
  <path d="M546.99,452.67h-205.31c-10.82,0-19.59,8.77-19.59,19.59v100.19c0,10.82,8.77,19.59,19.59,19.59h63.81c1.95,0,2.96,2.33,1.62,3.75l-16.64,17.73c-7.97,8.49-16.87,16.14-26.91,22.04-17.26,10.15-36.82,16.02-57.04,16.52l-53.65.06c-57.14,0-103.45-46.32-103.45-103.45v-116.18c0-59.15,47.95-107.1,107.1-107.1h80.46c28.4,0,55.64,11.28,75.73,31.37l38.02,38.02c7.65,7.65,20.05,7.65,27.7,0l77.97-77.97c7.65-7.65,7.65-20.05,0-27.7l-29.36-29.36c-53.65-53.65-126.42-83.79-202.3-83.79h-76.09C111.32,175.98,0,287.3,0,424.62v130.01C0,693.79,112.81,806.6,251.96,806.6h49.53c59.16,0,78.85-9.36,111.88-29.88,22.35-13.88,47.94-39.33,68.01-67.63,1.23-1.73,3.93-5.93,3.94-3.81l.36,69.55c0,10.82,8.77,19.59,19.59,19.59h100.2c10.82,0,19.59-8.77,19.59-19.59v-244.11c0-43.11-34.94-78.05-78.05-78.05Z"/>
</svg>