<?xml version="1.0" encoding="UTF-8"?>
<svg id="Layer_1" data-name="Layer 1" xmlns="http://www.w3.org/2000/svg" viewBox="0 0 1063.37 1072.85">
  <path d="M930.58,470.73h-349.28c-18.4,0-33.32,14.92-33.32,33.32v170.46c0,18.4,14.92,33.32,33.32,33.32h108.56c3.32,0,5.03,3.96,2.76,6.38l-28.31,30.16c-13.56,14.44-28.7,27.46-45.78,37.5-29.37,17.26-62.65,27.26-97.04,28.11l-91.27.1c-97.2,0-176-78.8-176-176v-197.65c0-100.63,81.58-182.2,182.2-182.2h136.88c48.32,0,94.66,19.19,128.83,53.36l64.68,64.68c13.01,13.01,34.11,13.01,47.12,0l132.64-132.64c13.01-13.01,13.01-34.11,0-47.12l-49.94-49.94C805.36,51.28,681.56,0,552.47,0h-129.45C189.39,0,0,189.39,0,423.02v221.18C0,880.94,191.91,1072.85,428.65,1072.85h84.27c100.65,0,134.15-15.93,190.34-50.83,38.02-23.61,81.56-66.91,115.7-115.05,2.09-2.94,6.69-10.09,6.71-6.48l.61,118.32c0,18.4,14.92,33.32,33.32,33.32h170.46c18.4,0,33.32-14.92,33.32-33.32v-415.29c0-73.34-59.45-132.79-132.79-132.79Z"/>
</svg>